<svg width="150" height="31" viewBox="0 0 150 31" fill="none" xmlns="http://www.w3.org/2000/svg">
<g clip-path="url(#clip0_521_2)">
<path d="M68.8943 19.7961C70.1378 19.7961 70.9083 19.1077 70.9083 18.2143C70.9083 16.8848 69.5533 16.4013 68.3789 15.6498C66.8007 14.7302 65.977 13.8473 65.977 12.4652C65.977 10.731 67.348 9.48553 69.4417 9.48553C70.4407 9.48553 71.36 9.70625 72.3059 10.1687L72.2421 11.9712C71.1793 11.3984 70.3078 11.0778 69.5852 11.0778C68.5064 11.0778 67.8953 11.6034 67.8953 12.3706C67.8953 13.4059 69.2079 13.9104 70.2813 14.5988C72.0242 15.6183 72.9223 16.6062 72.9223 18.167C72.9223 20.1272 71.4397 21.5303 68.99 21.5303C67.9113 21.5303 66.8645 21.3043 65.9186 20.8629L65.7432 18.6505C66.9176 19.3967 67.9325 19.8014 68.8997 19.8014L68.8943 19.7961Z" fill="#939598"/>
<path d="M57.6024 19.7961C58.8458 19.7961 59.6163 19.1077 59.6163 18.2143C59.6163 16.8848 58.2613 16.4013 57.0869 15.6498C55.5087 14.7302 54.685 13.8473 54.685 12.4652C54.685 10.731 56.0507 9.48553 58.1444 9.48553C59.1434 9.48553 60.0627 9.70625 61.0139 10.1687L60.9501 11.9712C59.8873 11.3984 59.0158 11.0778 58.2932 11.0778C57.2144 11.0778 56.6033 11.6034 56.6033 12.3706C56.6033 13.4059 57.9159 13.9104 58.9893 14.5988C60.7269 15.6183 61.6303 16.6062 61.6303 18.167C61.6303 20.1272 60.1477 21.5303 57.698 21.5303C56.6193 21.5303 55.5725 21.3043 54.6266 20.8629L54.4512 18.6505C55.6256 19.3967 56.6405 19.8014 57.6077 19.8014L57.6024 19.7961Z" fill="#939598"/>
<path d="M79.3573 16.4486C79.3573 18.6294 80.2873 19.7435 82.1099 19.7435C83.9326 19.7435 84.8678 18.6137 84.8678 16.4013V9.86914H86.903V16.4328C86.903 19.733 85.091 21.5145 82.1206 21.5145C79.1501 21.5145 77.3328 19.5228 77.3328 16.4643V9.86914H79.3627V16.4486H79.3573Z" fill="#939598"/>
<path d="M91.9194 9.86914H94.5604C96.0164 9.86914 97.1376 9.96373 98.1207 10.6469C98.9709 11.2355 99.4544 12.1288 99.4544 13.0537C99.4544 14.5357 98.567 15.6498 96.9569 16.1911L100.645 21.1414H98.312L94.8473 16.4643H93.8802V21.1414H91.9141V9.86914H91.9194ZM97.4564 13.2167C97.4564 11.4562 95.5222 11.4825 93.8802 11.4825V14.9771C95.1608 14.9771 97.4564 15.1032 97.4564 13.2167Z" fill="#939598"/>
<path d="M138.012 21.1414H135.998V11.5928H132.151V9.86914H141.843V11.5928H138.012V21.1414Z" fill="#939598"/>
<path d="M45.6834 9.50128C45.6834 9.50128 45.6462 9.45398 45.5983 9.45398C45.5505 9.45398 45.5133 9.50128 45.5133 9.50128C42.6863 13.6633 41.6129 15.9125 39.9019 21.1414H41.9371C42.1231 20.453 42.6066 19.0288 42.8511 18.3562H48.3562C48.6007 19.0288 49.0842 20.453 49.2649 21.1414H51.3054C49.5731 15.8652 48.4731 13.5898 45.6887 9.50128H45.6834ZM43.7013 16.6483C44.222 15.2189 44.8066 13.9366 45.6143 12.6649C46.4113 13.9313 47.0543 15.2819 47.5379 16.6483H43.7066H43.7013Z" fill="#939598"/>
<path d="M109.078 9.50128C109.078 9.50128 109.041 9.45398 108.993 9.45398C108.945 9.45398 108.908 9.50128 108.908 9.50128C106.076 13.6633 105.007 15.9125 103.291 21.1414H105.326C105.512 20.453 105.996 19.0288 106.24 18.3562H111.745C111.99 19.0288 112.473 20.453 112.659 21.1414H114.695C112.968 15.8652 111.862 13.5898 109.083 9.50128H109.078ZM107.096 16.6483C107.617 15.2189 108.201 13.9366 109.003 12.6649C109.795 13.9313 110.444 15.2819 110.927 16.6483H107.096Z" fill="#939598"/>
<path d="M120.497 14.1363L127.974 21.5303C127.974 21.5303 128.038 21.5355 128.07 21.504C128.086 21.4882 128.102 21.4514 128.102 21.4094V9.87439H126.167V16.8479L118.691 9.45398C118.691 9.45398 118.627 9.45398 118.595 9.48026C118.579 9.49602 118.563 9.53806 118.563 9.57485V21.1466H120.497V14.1363Z" fill="#939598"/>
<path d="M0.0265694 14.625C0.0106277 14.9141 0 15.2083 0 15.5026C0 18.3982 0.802395 21.1046 2.19994 23.4221C3.19364 20.1639 4.60713 16.7323 6.4351 13.285C4.16608 13.616 2.01927 14.068 0.0265694 14.625Z" fill="#FAA61A"/>
<path d="M2.75256 6.72656C5.38824 6.16952 8.24179 5.77539 11.2388 5.58095C12.6682 3.61553 14.1614 1.81827 15.6759 0.20495C15.6121 0.136633 15.5484 0.0683167 15.4793 0C10.1973 0.0630615 5.54235 2.71165 2.75256 6.72656Z" fill="#FAA61A"/>
<path d="M24.2684 2.53297C23.1047 7.06814 21.0642 12.0237 18.1947 16.9373C17.387 18.3194 16.5421 19.6489 15.6706 20.9154C16.5368 22.1819 17.4348 23.3853 18.3488 24.5204C19.6347 24.4679 20.8994 24.3785 22.1376 24.2577C22.9453 23.0648 23.7317 21.8193 24.481 20.5265C26.7978 16.5642 28.5833 12.5755 29.8161 8.80759C28.578 6.24834 26.6491 4.07272 24.2684 2.52771V2.53297Z" fill="#FAA61A"/>
<path d="M24.2685 2.53297C21.7975 0.930158 18.8483 0 15.6759 0H15.4793C17.8334 2.47517 20.1343 5.40753 22.2386 8.69198C23.0781 6.58468 23.7583 4.51941 24.2685 2.53297Z" fill="#39B54A"/>
<path d="M29.8215 8.81812C28.9925 11.3563 27.9085 13.9944 26.58 16.664C27.5843 18.8712 28.4133 21.0468 29.0669 23.1541C29.1626 23.1331 29.2529 23.1121 29.3485 23.091C30.6239 20.8471 31.3466 18.2616 31.3466 15.5079C31.3466 13.1116 30.7992 10.8466 29.8162 8.82337L29.8215 8.81812Z" fill="#39B54A"/>
<path d="M13.1518 16.9425C12.3441 15.5604 11.6002 14.1731 10.9306 12.791C9.38961 12.9013 7.88578 13.0695 6.43509 13.2797C5.83463 14.4095 5.28198 15.5341 4.77185 16.6587C5.40952 17.9462 6.11095 19.239 6.86552 20.5318C9.17705 24.4941 11.7755 28.0151 14.4537 30.9527C14.8576 30.9842 15.2667 31 15.6759 31C18.2159 31 20.6125 30.4061 22.7327 29.3446C19.3425 26.0759 16.0213 21.8561 13.1518 16.9425Z" fill="#39B54A"/>
<path d="M29.3485 23.0858C26.0008 23.8688 22.2864 24.368 18.3541 24.5309C19.7782 26.3071 21.2502 27.9205 22.7328 29.3499C25.5172 27.9573 27.8234 25.7711 29.3485 23.091V23.0858Z" fill="#0077C0"/>
<path d="M9.20895 24.263C6.7752 24.0212 4.45304 23.6428 2.27966 23.1489C2.25309 23.2382 2.22121 23.3328 2.19464 23.4221C4.72936 27.6367 9.23552 30.5586 14.4484 30.958C12.6417 28.9768 10.8722 26.7329 9.20364 24.263H9.20895Z" fill="#0077C0"/>
<path d="M15.6759 5.43909C11.0475 5.43909 6.66358 5.90154 2.75257 6.72659C1.17435 8.99681 0.19128 11.7032 0.0265503 14.6251C4.58054 13.3533 9.94224 12.6228 15.6759 12.6228C17.2913 12.6228 18.8749 12.6807 20.4212 12.791C21.0907 11.4142 21.7018 10.0478 22.2385 8.69201C21.5477 7.61471 20.841 6.57419 20.113 5.58098C18.6676 5.48638 17.185 5.43909 15.6759 5.43909Z" fill="#0077C0"/>
<path d="M145.457 12.1446C145.457 11.5245 145.68 10.9937 146.126 10.5575C146.573 10.1161 147.109 9.90063 147.736 9.90063C148.363 9.90063 148.9 10.1214 149.341 10.5575C149.787 10.999 150.005 11.5245 150.005 12.1446C150.005 12.7647 149.782 13.2954 149.341 13.7316C148.9 14.1678 148.363 14.3885 147.736 14.3885C147.109 14.3885 146.573 14.1678 146.126 13.7316C145.68 13.2902 145.457 12.7594 145.457 12.1446ZM149.633 12.1446C149.633 11.6243 149.447 11.1829 149.075 10.815C148.703 10.4472 148.257 10.2632 147.731 10.2632C147.205 10.2632 146.759 10.4472 146.381 10.815C146.009 11.1829 145.823 11.6243 145.823 12.1446C145.823 12.6648 146.009 13.1063 146.381 13.4741C146.753 13.842 147.205 14.0259 147.731 14.0259C148.257 14.0259 148.703 13.842 149.075 13.4741C149.447 13.1063 149.633 12.6596 149.633 12.1446ZM148.438 13.5004L147.726 12.3127H147.322V13.5004H146.918V10.7257H147.635C148.31 10.7257 148.645 10.9832 148.645 11.4929C148.645 11.8503 148.464 12.1025 148.103 12.2444L148.868 13.4951H148.432L148.438 13.5004ZM147.322 11.0673V11.9922C147.354 11.9922 147.444 11.9974 147.588 11.9974C147.848 11.9974 148.023 11.9659 148.114 11.8976C148.204 11.8293 148.246 11.7084 148.246 11.5192C148.246 11.2144 148.045 11.062 147.641 11.062H147.322V11.0673Z" fill="#939598"/>
</g>
<defs>
<clipPath id="clip0_521_2">
<rect width="150" height="31" fill="white"/>
</clipPath>
</defs>
</svg>
